<?xml version="1.0" standalone="no"?>
<!DOCTYPE svg PUBLIC "-//W3C//DTD SVG 20010904//EN"
 "http://www.w3.org/TR/2001/REC-SVG-20010904/DTD/svg10.dtd">
<svg version="1.0" xmlns="http://www.w3.org/2000/svg"
 width="520.000000pt" height="520.000000pt" viewBox="0 0 520.000000 520.000000"
 preserveAspectRatio="xMidYMid meet">
<metadata>
Created by potrace 1.11, written by Peter Selinger 2001-2013
</metadata>
<g transform="translate(0.000000,520.000000) scale(0.100000,-0.100000)"
fill="#000000" stroke="none">
<path d="M208 5003 c25 -38 50 -72 55 -78 4 -5 86 -123 180 -260 95 -138 193
-280 218 -315 25 -36 127 -182 226 -325 202 -293 559 -806 648 -935 60 -86 78
-112 194 -280 60 -88 63 -95 50 -117 -14 -24 -86 -129 -274 -403 -59 -85 -140
-204 -181 -265 -41 -60 -135 -198 -209 -305 -73 -107 -199 -292 -280 -410 -80
-118 -202 -296 -270 -395 -68 -99 -172 -252 -232 -340 -59 -88 -110 -162 -113
-165 -3 -3 -46 -65 -95 -138 -50 -73 -96 -141 -104 -152 -13 -20 -8 -20 753
-20 l766 0 283 428 c156 235 386 582 512 772 125 190 231 349 235 353 4 5 28
-22 52 -60 25 -37 197 -297 383 -578 186 -280 399 -601 472 -713 l134 -202
780 0 c622 0 779 3 772 13 -4 6 -70 102 -147 212 -76 110 -173 250 -215 310
-60 87 -209 302 -281 405 -6 8 -76 110 -156 225 -80 116 -152 219 -160 230 -8
11 -52 74 -97 140 -46 66 -191 275 -323 465 -132 190 -262 377 -289 415 -26
39 -73 105 -103 148 l-54 78 77 112 c42 62 93 135 113 163 21 29 150 212 287
408 138 196 355 506 484 689 128 182 254 361 279 397 130 186 376 537 385 548
7 9 -144 12 -749 12 l-759 -1 -429 -644 c-236 -355 -430 -645 -431 -645 -2 0
-72 102 -156 228 -85 125 -216 319 -292 432 -76 113 -202 300 -280 417 l-142
212 -782 1 -782 0 47 -67z"/>
</g>
</svg>
